<svg xmlns="http://www.w3.org/2000/svg" width="104" height="104" viewBox="0 0 104 104" fill="#4B75C8"><path fill-rule="evenodd" d="M101 52c0-27.02-21.98-49-49-49S3 24.98 3 52s21.98 49 49 49 49-21.98 49-49ZM0 52a52 52 0 1 1 104 0A52 52 0 0 1 0 52Zm49.53-23.89c-.47-5.01-4.33-8.42-9.69-8.42a9.32 9.32 0 0 0-9.29 7.82c-.13.66-.19 1.34-.19 2.04v22.63H22v9.2a16.83 16.83 0 0 0 14.22 16.59v4.84c0 .83.67 1.5 1.5 1.5h6.6c.83 0 1.5-.67 1.5-1.5v-4.65h11.99v4.65c0 .83.68 1.5 1.5 1.5h6.61c.83 0 1.5-.67 1.5-1.5v-4.8A16.8 16.8 0 0 0 82 61.38v-9.2H33.36V29.55c0-.5.04-.98.12-1.44a6.34 6.34 0 0 1 6.36-5.42c3.09 0 6.19 1.69 6.67 5.44a9.97 9.97 0 0 0-8.41 9.84v2.12c0 .83.68 1.5 1.5 1.5h16.95c.83 0 1.5-.67 1.5-1.5v-2.12a9.98 9.98 0 0 0-8.52-9.86Zm5.52 10.48H41.1v-.62a6.98 6.98 0 0 1 13.95 0v.62ZM42.82 81.31h-3.6v-3.15h3.6v3.15Zm21.6 0h-3.61v-3.15h3.61v3.15ZM79 61.38c0 7.27-5.66 13.24-12.79 13.74h-.02l-.27.02H38.78c-.36 0-.71 0-1.06-.04A13.81 13.81 0 0 1 25 61.36v-.88h54v.88Zm0-3.88H25v-2.32h54v2.32Z"/></svg>