<svg xmlns="http://www.w3.org/2000/svg" width="104" height="104" viewBox="0 0 104 104" fill="#4B75C8"><path fill-rule="evenodd" d="M52 101a49 49 0 1 0 0-98 49 49 0 0 0 0 98Zm0 3A52 52 0 1 0 52 0a52 52 0 0 0 0 104Zm-6.56-66.02a1.5 1.5 0 0 1-.1 2.12l-6.72 6.12a1.5 1.5 0 0 1-2.08-.06l-3.36-3.43a1.5 1.5 0 0 1 2.14-2.1l2.35 2.4 5.65-5.15a1.5 1.5 0 0 1 2.12.1Zm4.7 3.36a1.5 1.5 0 1 0 0 3h19.43a1.5 1.5 0 1 0 0-3H50.14Zm-4.7 10.22a1.5 1.5 0 0 1-.1 2.12l-6.72 6.09a1.5 1.5 0 0 1-2.07-.06l-3.36-3.39a1.5 1.5 0 0 1 2.13-2.11l2.35 2.37 5.66-5.13a1.5 1.5 0 0 1 2.12.1Zm4.7 3.36a1.5 1.5 0 1 0 0 3h19.43a1.5 1.5 0 1 0 0-3H50.14Zm-4.7 10.18a1.5 1.5 0 0 1-.1 2.12l-6.72 6.12a1.5 1.5 0 0 1-2.08-.05l-3.36-3.39a1.5 1.5 0 0 1 2.13-2.11l2.35 2.37L43.32 65a1.5 1.5 0 0 1 2.12.1Zm4.7 3.4a1.5 1.5 0 1 0 0 3h19.43a1.5 1.5 0 1 0 0-3H50.14ZM29.46 26.28a2 2 0 0 0-2 2v51.03c0 1.1.9 2 2 2h45.08a2 2 0 0 0 2-2V28.28a2 2 0 0 0-2-2h-8.51v3.64a1.5 1.5 0 0 1-1.31 1.49l-.19.01H39.47a1.5 1.5 0 0 1-1.5-1.5v-3.65h-8.51Zm8.51-3h-8.51c-2.75 0-5 2.25-5 5v51.03c0 2.75 2.25 5 5 5h45.08c2.75 0 5-2.25 5-5V28.28c0-2.75-2.25-5-5-5h-8.51v-3.4c0-.83-.67-1.5-1.5-1.5H59.3c-1.21-2.83-4.03-4.76-7.3-4.76s-6.1 1.93-7.3 4.76h-5.23c-.83 0-1.5.67-1.5 1.5v3.4Zm25.06 5.14H40.97v-7.04h4.8c.69 0 1.29-.47 1.45-1.13.53-2.09 2.44-3.63 4.78-3.63s4.25 1.54 4.78 3.63a1.5 1.5 0 0 0 1.45 1.13h4.8v7.04Z"/></svg>
