<svg xmlns="http://www.w3.org/2000/svg" width="104" height="104" viewBox="0 0 104 104" fill="#4B75C8"><path fill-rule="evenodd" d="M0 52a52 52 0 1 1 104 0A52 52 0 0 1 0 52Zm3 0c0 27.02 21.98 49 49 49s49-21.98 49-49S79.02 3 52 3 3 24.98 3 52Zm76.09-8.14h-3.28a3.49 3.49 0 0 0-.09-4.78L64.43 27.45l-7.54-7.77-3.15-3.24a3.51 3.51 0 0 0-4.95-.07L15 49.2a3.48 3.48 0 0 0-.08 4.95l3.15 3.24 7.54 7.77 2.86 2.93v10.82a3.5 3.5 0 0 0 3.5 3.5h47.12a3.5 3.5 0 0 0 3.5-3.5V47.19a3.5 3.5 0 0 0-3.49-3.33Zm-5.52-2.69a.5.5 0 0 1-.01.7l-2.05 1.99H47.54l14.74-14.32 11.29 11.63ZM60.19 27.39 43.23 43.86H36.3l20.52-19.94 3.37 3.47Zm-31.72 36.4-.7-.73.7-.68v1.41Zm0-5.6-2.8 2.72-3.36-3.46 6.16-5.99v6.73Zm0-10.91-8.25 8.02-3.14-3.24a.5.5 0 0 1-.15-.35c0-.08.03-.23.15-.36l33.8-32.82c.1-.1.22-.15.35-.15s.26.06.36.16l3.14 3.23L32 43.86h-.03c-.09 0-.18 0-.27.02a3.5 3.5 0 0 0-3.23 3.4Zm51.12 31.63a.5.5 0 0 1-.5.5H31.97a.5.5 0 0 1-.5-.5V47.36c0-.24.18-.44.4-.49h47.22c.28 0 .5.22.5.5v31.55ZM36.9 61.9h10.89a2.5 2.5 0 0 0 2.5-2.5v-7.12a2.5 2.5 0 0 0-2.5-2.5H36.9a2.5 2.5 0 0 0-2.5 2.5v7.12a2.5 2.5 0 0 0 2.5 2.5Zm.5-9.12h9.89v6.12H37.4v-6.12Zm-1.5 15.18h8.47a1.5 1.5 0 1 1 0 3H35.9a1.5 1.5 0 1 1 0-3Zm16.82 0h-4.24a1.5 1.5 0 1 0 0 3h4.24a1.5 1.5 0 1 0 0-3Zm4.18 0h8.29a1.5 1.5 0 1 1 0 3H56.9a1.5 1.5 0 1 1 0-3Zm14.49 0H69.3a1.5 1.5 0 1 0 0 3h2.09a1.5 1.5 0 1 0 0-3Z"/></svg>
