<svg xmlns="http://www.w3.org/2000/svg" width="104" height="104" viewBox="0 0 104 104" fill="#4B75C8"><path fill-rule="evenodd" d="M101 52c0-27.02-21.98-49-49-49S3 24.98 3 52s21.98 49 49 49 49-21.98 49-49ZM0 52a52 52 0 1 1 104 0A52 52 0 0 1 0 52Zm52-36.55c13.77 0 25.62 9.04 30.79 21.94.17.42.34.85.49 1.28l.43 1.25a38.86 38.86 0 0 1 1.78 9.06 10.37 10.37 0 0 1-.77 19.44v3.97c0 6.58-5.36 11.93-11.94 11.93H59.11v1.47a1.9 1.9 0 0 1-1.9 1.9H45.42a1.9 1.9 0 0 1-1.9-1.9v-5.88c0-1.05.86-1.9 1.9-1.9h11.79c1.05 0 1.9.85 1.9 1.9v1.41h13.67a8.95 8.95 0 0 0 8.94-8.93v-3.46h-4.29a1.5 1.5 0 0 1-1.5-1.5V49.68c0-.83.67-1.5 1.5-1.5h4.08c.3 0 .6 0 .9.04a36.8 36.8 0 0 0-2.4-9.76C75.25 26.69 64.5 18.45 52 18.45c-15.72 0-28.7 13.04-30.41 29.77.29-.03.59-.04.89-.04h4.09c.83 0 1.5.67 1.5 1.5v17.75c0 .82-.67 1.5-1.5 1.5h-4.35a10.4 10.4 0 0 1-10.11-10.38c0-4.31 2.64-8.02 6.4-9.57C19.92 30.24 34.4 15.45 52 15.45ZM25.07 51.18h-2.59a7.21 7.21 0 0 0-4.09 1.24 7.39 7.39 0 0 0 4.09 13.51h2.59V51.18Zm21.45 33.51h9.59v-3.68h-9.59v3.68Zm34.99-18.76a7.39 7.39 0 0 0 4.1-13.51 7.21 7.21 0 0 0-4.1-1.24h-2.58v14.75h2.58ZM52 32.92c-10.22 0-18.53 8.21-18.53 18.29a18 18 0 0 0 2.07 8.39c.1.19.14.41.1.63l-1.73 9.44a1.5 1.5 0 0 0 1.48 1.77c.2 0 .41-.05.61-.13l7.64-3.41c.25-.11.54-.11.8 0A18.52 18.52 0 0 0 52 69.5c10.21 0 18.52-8.2 18.52-18.29S62.21 32.92 52 32.92Zm0 33.58a15.52 15.52 0 0 1-7.44-1.88.95.95 0 0 0-.87-.04l-2.81 1.25-1.8.8a1 1 0 0 1-1.38-1.08l.41-2.24.66-3.61a.95.95 0 0 0-.13-.68 14.6 14.6 0 0 1-1.89-4.9c-.19-.94-.29-1.91-.29-2.9 0-8.43 6.97-15.29 15.53-15.29s15.52 6.86 15.52 15.29-6.96 15.29-15.52 15.29Zm-9.12-17.4h18.04a1.5 1.5 0 1 0 0-3H42.88a1.5 1.5 0 1 0 0 3Zm9.44 7.02h-9.45a1.5 1.5 0 1 1 0-3h9.45a1.5 1.5 0 1 1 0 3Z"/></svg>
