<svg xmlns="http://www.w3.org/2000/svg" width="104" height="104" viewBox="0 0 104 104" fill="#4B75C8"><path fill-rule="evenodd" d="M101 52c0-27.02-21.98-49-49-49S3 24.98 3 52s21.98 49 49 49 49-21.98 49-49ZM0 52a52 52 0 1 1 104 0A52 52 0 0 1 0 52Zm52.46-37.83L83.08 24c.62.2 1.04.77 1.04 1.43V53c0 20.27-19.73 37.37-32.12 37.37S19.87 73.27 19.87 53V25.43c0-.66.43-1.23 1.05-1.43l30.62-9.83c.29-.09.61-.1.92 0ZM52 87.37c10.97 0 29.12-16.06 29.12-34.37V26.52L52 17.17l-29.13 9.35V53c0 18.31 18.16 34.37 29.13 34.37Zm.46-63.88 22.83 7.33c.62.2 1.04.78 1.04 1.43v20.56c0 15.31-14.94 28.24-24.33 28.24S27.67 68.12 27.67 52.81V32.25c0-.65.42-1.23 1.04-1.43l22.83-7.33c.29-.09.61-.1.92 0ZM52 78.05c7.11 0 21.33-10.91 21.33-25.24V33.34L52 26.5l-21.33 6.84v19.47c0 14.33 14.22 25.24 21.33 25.24Zm-2.12-15.02c-.38 0-.76-.14-1.05-.43l-9.94-9.71c-.29-.28-.45-.66-.45-1.06s.16-.79.44-1.07l5.07-5.07a1.5 1.5 0 0 1 2.09-.03l3.92 3.69 9.09-9.09a1.5 1.5 0 0 1 2.12 0l5.11 5.11c.28.28.44.67.44 1.07s-.16.78-.45 1.06L50.94 62.61c-.29.29-.67.43-1.05.43ZM42.07 51.8l7.8 7.63 13.21-13.01-2.98-2.98-9.06 9.06a1.5 1.5 0 0 1-2.09.03l-3.92-3.69-2.96 2.96Z"/></svg>
