<svg xmlns="http://www.w3.org/2000/svg" width="104" height="104" viewBox="0 0 104 104" fill="#4B75C8"><path fill-rule="evenodd" d="M101 52c0-27.02-21.98-49-49-49S3 24.98 3 52s21.98 49 49 49 49-21.98 49-49ZM0 52a52 52 0 1 1 104 0A52 52 0 0 1 0 52Zm81.58 24.2h2a1.3 1.3 0 0 1 1.29 1.3v5.06c0 .72-.58 1.29-1.29 1.29H20.42c-.72 0-1.29-.58-1.29-1.29V77.5c0-.72.58-1.29 1.29-1.29h2V24.05a3.88 3.88 0 0 1 3.88-3.88h51.39a3.9 3.9 0 0 1 3.89 3.88V76.2Zm-3.89-53.46H66.86v53.47h12.15V24.05c0-.72-.59-1.31-1.32-1.31Zm-51.39 0c-.72 0-1.31.59-1.31 1.31H25v52.17h4.05V30.51c0-1.45.47-2.7 1.38-3.58 1.53-1.5 3.69-1.5 3.94-1.5h11.7c1.25 0 2.33.44 3.13 1.29a6.03 6.03 0 0 1 1.43 3.18 7.84 7.84 0 0 1 6.65 7.74v1.23a1.3 1.3 0 0 1-1.29 1.29H42.9a1.3 1.3 0 0 1-1.29-1.29v-1.23a7.85 7.85 0 0 1 6.4-7.7 3.15 3.15 0 0 0-.69-1.46 1.62 1.62 0 0 0-1.26-.48H34.34c-.06 0-1.37 0-2.13.77-.4.4-.6.97-.6 1.73v22.25h2.82v-.65c0-.72.57-1.29 1.29-1.29s1.29.58 1.29 1.29v3.85a1.3 1.3 0 0 1-2.58 0v-.63h-2.82v5.02h2.82v-.65c0-.72.57-1.29 1.29-1.29s1.29.58 1.29 1.29v3.85a1.3 1.3 0 0 1-2.58 0v-.63h-2.82v13.3h32.67V22.74H26.3Zm17.88 14.83H54.7a5.27 5.27 0 0 0-10.52 0ZM21.71 81.26h60.58v-2.49H21.71v2.49Zm37.8-20.63a1.3 1.3 0 0 0 2.58 0v-7.6a1.3 1.3 0 0 0-2.58 0v7.6Zm11 1.29a1.3 1.3 0 0 1-1.29-1.29v-7.6a1.3 1.3 0 0 1 2.58 0v7.6a1.3 1.3 0 0 1-1.29 1.29Z"/></svg>
