<svg xmlns="http://www.w3.org/2000/svg" width="244" height="32" fill="none" viewBox="0 0 244 32"><path fill="#4AB1E5" d="M24.32 28.8a7.05 7.05 0 0 1-7.06-7V9.94a7.05 7.05 0 0 1 7.06-7.01c3.9 0 7.06 3.15 7.06 7.01V21.8a7.05 7.05 0 0 1-7.06 7.02Zm0-23.03a4.2 4.2 0 0 0-4.2 4.18V21.8a4.2 4.2 0 0 0 8.4 0V9.95a4.2 4.2 0 0 0-4.2-4.18Z"/><path fill="#6691CB" d="M8.59 16.51a6.81 6.81 0 0 1-6.83-6.78 6.81 6.81 0 0 1 6.83-6.79 6.81 6.81 0 0 1 6.82 6.79A6.81 6.81 0 0 1 8.6 16.5Zm0-10.74A3.97 3.97 0 0 0 4.6 9.73a3.97 3.97 0 0 0 3.98 3.95c2.2 0 3.98-1.77 3.98-3.95a3.97 3.97 0 0 0-3.98-3.96Z"/><path fill="#4AB1E5" d="M44.91 28.67h-6.5a5.28 5.28 0 0 1-5.3-5.26v-.42c0-2.9 2.38-5.26 5.3-5.26h6.5c2.92 0 5.3 2.36 5.3 5.26v.42c0 2.9-2.38 5.26-5.3 5.26Zm-6.5-8.1a2.44 2.44 0 0 0-2.44 2.42v.42c0 1.34 1.1 2.42 2.44 2.42h6.5a2.44 2.44 0 0 0 2.44-2.42v-.42c0-1.34-1.1-2.43-2.44-2.43h-6.5Z"/><path fill="#94979B" d="M42.88 16.13h-2.23a7.41 7.41 0 0 1-7.43-7.39V3.6h2.85v5.14a4.58 4.58 0 0 0 4.58 4.56h2.23a4.57 4.57 0 0 0 4.58-4.56h2.85a7.41 7.41 0 0 1-7.43 7.39Zm-27.7 11.83h-2.85v-3.85a3.06 3.06 0 0 0-3.06-3.05H7.61a3.06 3.06 0 0 0-3.06 3.05H1.7a5.9 5.9 0 0 1 5.91-5.88h1.67a5.9 5.9 0 0 1 5.9 5.88v3.85Z"/><path fill="#000" d="M61.93 9.75c.18 0 .23.08.23.23 0 1.2.85 1.98 3.07 1.98 2.03 0 2.75-.84 2.75-1.86 0-.59-.34-1.2-1.67-1.3l-2.72-.2c-1.98-.16-2.87-1.04-2.87-2.4 0-1.48 1.3-3.07 4.16-3.07 3.04 0 4.13 1.38 4.13 3.05 0 .08-.06.17-.24.17h-.97c-.16 0-.23-.05-.24-.28-.09-.84-.77-1.7-2.69-1.7-1.68 0-2.7.8-2.7 1.83 0 .58.38 1.09 1.54 1.17l2.68.2c2.24.17 3.03 1.26 3.03 2.53 0 1.26-1.12 3.1-4.19 3.1-3.07 0-4.5-1.4-4.5-3.1v-.17c0-.11.04-.18.19-.18h1.01Zm20.59-6.46c.1 0 .2.1.2.2v9.35c0 .1-.1.2-.2.2h-1.04c-.1 0-.2-.1-.2-.2V5.8h-.05s-.2.55-.57 1.05l-3.48 4.94-3.48-4.94c-.36-.5-.57-1.05-.57-1.05h-.05v7.03c0 .1-.1.2-.2.2h-1.05a.2.2 0 0 1-.2-.2V3.48c0-.1.1-.2.2-.2h.67c.12 0 .23.06.31.17l4.35 6.14h.03l4.35-6.14c.08-.11.2-.16.31-.16h.67Zm9.66 7.73h-5.44l-.9 1.8c-.12.21-.15.21-.34.21h-1.07c-.1 0-.14-.06-.14-.11s.05-.13.08-.2l4.8-9.43h.6l4.8 9.44c.03.06.08.14.08.19 0 .05-.05.11-.15.11h-1.06c-.2 0-.23 0-.35-.2l-.91-1.81Zm-4.82-1.24h4.2l-1.3-2.6C90 6.7 89.5 5.4 89.5 5.4h-.1s-.48 1.3-.73 1.79l-1.32 2.6Zm8.86-6.29c0-.1.1-.2.2-.2h4.17c2.3 0 4 1.14 4 3.2 0 1.58-1.02 2.57-2.53 2.94v.03s.35.31.62.7l1.87 2.57c.1.13.11.18.11.2 0 .07-.03.1-.13.1h-1.34a.32.32 0 0 1-.23-.1l-2.41-3.34h-2.9v3.25c0 .1-.1.2-.2.2h-1.04c-.1 0-.2-.1-.2-.2V3.49Zm1.44 1.03v3.92h2.9c1.5 0 2.59-.69 2.59-1.95 0-1.27-1.07-1.97-2.59-1.97h-2.9Zm7.74-.22v-.78c0-.1.13-.23.23-.23h9.19c.1 0 .23.13.23.23v.78c0 .1-.13.23-.23.23h-3.88v8.31c0 .1-.1.2-.2.2h-1.04a.2.2 0 0 1-.2-.2V4.53h-3.87c-.1 0-.23-.13-.23-.23ZM61.5 28.65a.2.2 0 0 1-.19-.2V19.1c0-.1.1-.2.2-.2h4.59c2.19 0 3.33 1.11 3.33 2.62 0 .85-.32 1.46-.9 1.9v.04a2.55 2.55 0 0 1 1.31 2.32c0 1.87-1.35 2.88-3.66 2.88h-4.67v-.01Zm1.25-8.51v2.77h3.64c1.33 0 1.6-.6 1.6-1.4 0-.79-.47-1.37-1.92-1.37h-3.32Zm3.4 7.28c1.57 0 2.25-.56 2.25-1.64 0-1.1-.7-1.63-2.25-1.63h-3.4v3.27h3.4Zm12.24-.79h-5.44l-.9 1.8c-.12.22-.15.22-.35.22h-1.06c-.1 0-.14-.07-.14-.11 0-.05.05-.13.08-.2l4.8-9.43h.6l4.8 9.43c.03.07.08.15.08.2 0 .04-.05.1-.15.1h-1.06c-.2 0-.23 0-.34-.2l-.92-1.8Zm-4.82-1.23h4.2l-1.31-2.6c-.24-.48-.74-1.78-.74-1.78h-.1s-.48 1.3-.73 1.78l-1.32 2.6Zm6.14-5.49v-.78c0-.1.13-.23.23-.23h9.19c.1 0 .22.13.22.23v.78c0 .1-.13.23-.22.23h-3.88v8.31c0 .1-.1.2-.2.2h-1.04c-.1 0-.2-.1-.2-.2v-8.31h-3.87c-.1 0-.23-.13-.23-.23Zm21.02 8.54c0 .1-.1.2-.2.2H99.5c-.1 0-.2-.1-.2-.2v-3.77h-6.77v3.77c0 .1-.1.2-.19.2h-1.05c-.1 0-.2-.1-.2-.2V19.1c0-.1.1-.2.2-.2h1.05c.1 0 .2.1.2.2v4.35h6.76V19.1c0-.1.1-.2.2-.2h1.04c.1 0 .2.1.2.2v9.35Zm2.81-9.35c0-.1.1-.2.2-.2h4.18c2.3 0 3.99 1.14 3.99 3.2 0 1.58-1.02 2.57-2.52 2.95v.03s.34.3.62.7l1.86 2.56c.1.13.12.18.12.21 0 .07-.04.1-.13.1h-1.34a.32.32 0 0 1-.23-.11l-2.42-3.33h-2.9v3.25c0 .1-.1.2-.19.2h-1.05a.2.2 0 0 1-.2-.2V19.1Zm1.44 1.04v3.91h2.9c1.5 0 2.59-.68 2.59-1.95 0-1.26-1.07-1.96-2.59-1.96h-2.9Zm19.15 3.64c0 3.15-2.37 5.03-5.3 5.03-2.92 0-5.29-1.88-5.29-5.03 0-3.16 2.39-5.04 5.3-5.04 2.9 0 5.29 1.88 5.29 5.04Zm-9.15 0c0 2.36 1.75 3.8 3.85 3.8 2.11 0 3.86-1.43 3.86-3.8 0-2.38-1.7-3.8-3.86-3.8-2.15 0-3.85 1.4-3.85 3.8Zm21.37 0c0 3.15-2.37 5.03-5.3 5.03-2.92 0-5.29-1.88-5.29-5.03 0-3.16 2.39-5.04 5.3-5.04 2.9 0 5.3 1.88 5.3 5.04Zm-9.15 0c0 2.36 1.75 3.8 3.86 3.8 2.1 0 3.85-1.43 3.85-3.8 0-2.38-1.7-3.8-3.85-3.8-2.16 0-3.86 1.4-3.86 3.8Zm22.26-4.88c.1 0 .2.1.2.2v9.35c0 .1-.1.2-.2.2h-1.05a.2.2 0 0 1-.2-.2v-7.03h-.05s-.2.56-.57 1.06l-3.48 4.93-3.48-4.93a5.47 5.47 0 0 1-.57-1.06H140v7.03c0 .1-.1.2-.2.2h-1.04a.2.2 0 0 1-.2-.2V19.1c0-.1.1-.2.2-.2h.67c.11 0 .22.05.3.17l4.35 6.14h.04l4.34-6.14c.09-.12.2-.17.31-.17h.67Zm3.63 6.47c.17 0 .22.08.22.23 0 1.2.86 1.98 3.08 1.98 2.02 0 2.74-.85 2.74-1.87 0-.58-.34-1.2-1.66-1.3l-2.73-.2c-1.98-.15-2.86-1.03-2.86-2.4 0-1.47 1.29-3.06 4.15-3.06 3.04 0 4.13 1.38 4.13 3.05 0 .08-.06.16-.24.16h-.97c-.16 0-.23-.05-.24-.27-.08-.85-.77-1.7-2.68-1.7-1.69 0-2.71.79-2.71 1.83 0 .58.4 1.08 1.55 1.16l2.68.2c2.24.18 3.02 1.27 3.02 2.53 0 1.27-1.1 3.1-4.18 3.1-3.07 0-4.51-1.4-4.51-3.1v-.16c0-.12.05-.18.2-.18h1Z"/><path fill="#4AB1E5" d="M168.73 21.89c0-.07.07-.14.14-.14h2.98c1.64 0 2.84.81 2.84 2.28 0 1.12-.72 1.83-1.79 2.1v.02s.25.22.44.5l1.33 1.82c.08.1.08.13.08.15 0 .05-.02.08-.09.08h-.95a.23.23 0 0 1-.17-.08l-1.72-2.38h-2.07v2.32c0 .07-.07.14-.14.14h-.74c-.07 0-.14-.08-.14-.14v-6.67Zm1.02.74v2.8h2.08c1.07 0 1.84-.5 1.84-1.4 0-.9-.76-1.4-1.84-1.4h-2.08Zm7.85 2.92v2.27h4.42c.07 0 .16.09.16.16v.56c0 .06-.09.16-.16.16h-5.31a.15.15 0 0 1-.14-.14v-6.67c0-.07.07-.14.14-.14h5.2c.06 0 .16.1.16.17v.55c0 .07-.1.17-.17.17h-4.3v2.03h3.95c.07 0 .16.1.16.17v.55c0 .07-.09.17-.16.17h-3.96v-.01Zm7.84-1.62a3.96 3.96 0 0 1-.44-.56h-.03v5.18c0 .07-.07.14-.14.14h-.75a.15.15 0 0 1-.14-.14V21.9c0-.07.07-.14.14-.14h.56l4.58 4.65c.3.3.52.65.52.65h.05V21.9c0-.07.07-.14.14-.14h.75c.07 0 .14.07.14.14v6.66c0 .07-.08.14-.14.14h-.55l-4.68-4.77Zm14.8 1.29c0 2.25-1.7 3.59-3.78 3.59-2.09 0-3.77-1.34-3.77-3.59 0-2.24 1.7-3.59 3.77-3.59 2.07 0 3.78 1.35 3.78 3.6Zm-6.53 0c0 1.7 1.25 2.7 2.75 2.7s2.75-1 2.75-2.7c0-1.69-1.21-2.7-2.75-2.7s-2.75 1-2.75 2.7Zm10.34.7c.18.34.48 1.1.48 1.1h.07s.3-.76.48-1.1l2.02-4.02c.08-.15.1-.15.25-.15h.81c.07 0 .1.03.1.07 0 .03-.04.1-.06.15l-3.43 6.73h-.42l-3.42-6.73a.48.48 0 0 1-.06-.15c0-.04.02-.07.1-.07h.8c.15 0 .17 0 .25.15l2.03 4.02Zm9.42 1.34h-3.87l-.64 1.28c-.09.16-.11.16-.25.16h-.76c-.07 0-.1-.05-.1-.08 0-.04.03-.1.06-.14l3.42-6.73h.42l3.43 6.73c.02.04.05.1.05.14 0 .03-.03.08-.1.08h-.76c-.14 0-.16 0-.24-.16l-.66-1.28Zm-3.43-.88h3l-.94-1.85a23.6 23.6 0 0 1-.52-1.28h-.07s-.35.93-.52 1.28l-.95 1.85Zm4.67-3.91v-.56c0-.07.1-.16.16-.16h6.55c.07 0 .17.09.17.16v.56c0 .07-.1.16-.17.16h-2.76v5.93c0 .07-.07.14-.14.14h-.74c-.07 0-.14-.08-.14-.14v-5.93h-2.76c-.07 0-.17-.1-.17-.16Zm9.42 6.09c0 .07-.06.14-.14.14h-.74c-.07 0-.14-.08-.14-.14v-6.67c0-.07.07-.14.14-.14h.74c.07 0 .14.07.14.14v6.67Zm9.43-3.34c0 2.25-1.7 3.59-3.78 3.59-2.09 0-3.77-1.34-3.77-3.59 0-2.24 1.7-3.59 3.77-3.59 2.08 0 3.78 1.35 3.78 3.6Zm-6.53 0c0 1.7 1.25 2.7 2.75 2.7s2.75-1 2.75-2.7c0-1.69-1.21-2.7-2.75-2.7s-2.75 1-2.75 2.7Zm9.9-1.29a3.96 3.96 0 0 1-.44-.56h-.04v5.18c0 .07-.06.14-.13.14h-.75a.15.15 0 0 1-.14-.14V21.9c0-.07.07-.14.14-.14h.56l4.58 4.65c.3.3.52.65.52.65h.05V21.9c0-.07.07-.14.14-.14h.74c.08 0 .14.07.14.14v6.66c0 .07-.07.14-.14.14h-.54l-4.69-4.77Z"/></svg>