<svg xmlns="http://www.w3.org/2000/svg" width="104" height="104" viewBox="0 0 104 104" fill="#4B75C8"><path fill-rule="evenodd" d="M101 52c0-27.02-21.98-49-49-49S3 24.98 3 52s21.98 49 49 49 49-21.98 49-49ZM0 52a52 52 0 1 1 104 0A52 52 0 0 1 0 52Zm84.04-3.31H72.75V20.05c0-1.2-.97-2.17-2.17-2.17H43.83c-1.2 0-2.17.97-2.17 2.17v16.17H30.8c-.83 0-1.5.67-1.5 1.5v16.85a1.5 1.5 0 1 0 3 0V39.22h9.36v43.9h-9.65c-.82 0-1.5.67-1.5 1.5s.68 1.5 1.5 1.5h11.15c.1 0 .21-.01.3-.03.12.02.24.03.37.03h26.75c.19 0 .38-.03.56-.08.16.05.33.08.51.08h8.15a6.15 6.15 0 0 0 6.14-6.14V50.59a1.9 1.9 0 0 0-1.9-1.9ZM44.66 20.88h25.09v62.24H44.66V20.88Zm38.28 59.1a3.15 3.15 0 0 1-3.14 3.14h-7.05V51.69h10.19v28.29ZM32.36 61.5a16.24 16.24 0 0 0-5.38-4.96l-.06-.03c-.02 0-.03-.01-.03-.02a1.22 1.22 0 0 0-.17-.07l-.23-.07c-.04 0-.08 0-.12-.02a1.82 1.82 0 0 0-.33 0h-.12c-.07 0-.13.03-.2.06h-.03l-.17.08c-.03 0-.06.03-.09.05-.9.48-7.79 4.48-7.79 12.86 0 2.94.86 5.24 2.56 6.84a8.33 8.33 0 0 0 4.51 2.09v6.29a1.5 1.5 0 1 0 3 0v-6.3a8.32 8.32 0 0 0 4.5-2.08c1.7-1.6 2.56-3.9 2.56-6.84 0-3.29-1.06-5.91-2.41-7.9Zm-2.19 12.53a5.15 5.15 0 0 1-2.46 1.25v-3.2c0-.83-.68-1.5-1.5-1.5s-1.5.67-1.5 1.5v3.2a5.05 5.05 0 0 1-2.47-1.25c-1.06-1.01-1.6-2.56-1.6-4.63 0-5.6 3.93-8.76 5.56-9.83 1.62 1.06 5.57 4.23 5.57 9.83 0 2.07-.54 3.62-1.6 4.63Zm6.19-26.89h1.25a1.5 1.5 0 1 0 0-3h-1.25a1.5 1.5 0 1 0 0 3Zm1.25 7.38h-1.25a1.5 1.5 0 1 1 0-3h1.25a1.5 1.5 0 1 1 0 3Zm-1.25 7.37h1.25a1.5 1.5 0 1 0 0-3h-1.25a1.5 1.5 0 1 0 0 3Zm42.11.33h-1.25a1.5 1.5 0 1 1 0-3h1.25a1.5 1.5 0 1 1 0 3Zm-1.25 7.38h1.25a1.5 1.5 0 1 0 0-3h-1.25a1.5 1.5 0 1 0 0 3Zm1.25 7.37h-1.25a1.5 1.5 0 1 1 0-3h1.25a1.5 1.5 0 1 1 0 3ZM50.91 34.99a1.5 1.5 0 1 0 3 0v-7.57a1.5 1.5 0 1 0-3 0v7.57ZM62 36.49a1.5 1.5 0 0 1-1.5-1.5v-7.57a1.5 1.5 0 1 1 3 0v7.57c0 .83-.67 1.5-1.5 1.5ZM50.91 48.83a1.5 1.5 0 1 0 3 0v-7.57a1.5 1.5 0 1 0-3 0v7.57ZM62 50.33a1.5 1.5 0 0 1-1.5-1.5v-7.57a1.5 1.5 0 1 1 3 0v7.57c0 .83-.67 1.5-1.5 1.5ZM50.91 63.58a1.5 1.5 0 1 0 3 0v-7.57a1.5 1.5 0 1 0-3 0v7.57ZM62 65.08a1.5 1.5 0 0 1-1.5-1.5v-7.57a1.5 1.5 0 1 1 3 0v7.57c0 .83-.67 1.5-1.5 1.5ZM50.91 77.84a1.5 1.5 0 1 0 3 0v-7.57a1.5 1.5 0 1 0-3 0v7.57ZM62 79.34a1.5 1.5 0 0 1-1.5-1.5v-7.57a1.5 1.5 0 1 1 3 0v7.57c0 .83-.67 1.5-1.5 1.5Z"/></svg>
