<svg xmlns="http://www.w3.org/2000/svg" version="1.1" xmlns:xlink="http://www.w3.org/1999/xlink" xmlns:svgjs="http://svgjs.dev/svgjs" width="1000" height="1000"><g clip-path="url(#SvgjsClipPath1105)"><rect width="1000" height="1000" fill="#ffffff"></rect><g transform="matrix(4,0,0,4,0,0)"><svg xmlns="http://www.w3.org/2000/svg" version="1.1" xmlns:xlink="http://www.w3.org/1999/xlink" xmlns:svgjs="http://svgjs.dev/svgjs" width="250" height="250"><svg width="250" height="250" viewBox="0 0 250 250" fill="none" xmlns="http://www.w3.org/2000/svg">
<rect width="250" height="250" rx="8" fill="white"></rect>
<path d="M117.484 184.92C99.435 184.92 84.7456 170.324 84.7456 152.388V97.4826C84.7456 79.547 99.435 64.9502 117.484 64.9502C135.534 64.9502 150.223 79.547 150.223 97.4826V152.388C150.223 170.324 135.534 184.92 117.484 184.92ZM117.484 78.0915C106.715 78.0915 97.9703 86.7954 97.9703 97.4826V152.388C97.9703 163.09 106.729 171.779 117.484 171.779C128.239 171.779 136.998 163.075 136.998 152.388V97.4826C136.998 86.7811 128.239 78.0915 117.484 78.0915Z" fill="#4AB1E5"></path>
<path d="M44.5249 127.888C27.0642 127.888 12.863 113.777 12.863 96.4261C12.863 79.0755 27.0642 64.9639 44.5249 64.9639C61.9856 64.9639 76.1867 79.0755 76.1867 96.4261C76.1867 113.777 61.9856 127.888 44.5249 127.888ZM44.5249 78.091C34.3586 78.091 26.0734 86.3097 26.0734 96.4261C26.0734 106.543 34.3443 114.761 44.5249 114.761C54.7055 114.761 62.9764 106.543 62.9764 96.4261C62.9764 86.3097 54.7055 78.091 44.5249 78.091Z" fill="#6691CB"></path>
<path d="M212.972 184.265H182.804C169.278 184.265 158.264 173.335 158.264 159.88V157.925C158.264 144.484 169.278 133.54 182.804 133.54H212.972C226.499 133.54 237.512 144.47 237.512 157.925V159.88C237.512 173.321 226.499 184.265 212.972 184.265ZM182.804 146.681C176.558 146.681 171.489 151.732 171.489 157.925V159.88C171.489 166.087 176.572 171.124 182.804 171.124H212.972C219.219 171.124 224.287 166.072 224.287 159.88V157.925C224.287 151.718 219.204 146.681 212.972 146.681H182.804Z" fill="#4AB1E5"></path>
<path d="M203.553 126.107H193.214C174.217 126.107 158.767 110.754 158.767 91.877V68.0342H171.977V91.877C171.977 103.506 181.497 112.98 193.214 112.98H203.553C215.256 112.98 224.79 103.52 224.79 91.877H238C238 110.754 222.55 126.107 203.553 126.107Z" fill="#94979B"></path>
<path d="M75.0959 180.995H61.8855V163.145C61.8855 155.34 55.5244 148.99 47.713 148.99H39.9878C32.1621 148.99 25.8154 155.34 25.8154 163.145H12.605C12.605 148.106 24.8964 135.863 40.0022 135.863H47.7274C62.8332 135.863 75.1246 148.106 75.1246 163.145V180.995H75.0959Z" fill="#94979B"></path>
</svg></svg></g></g><defs><clipPath id="SvgjsClipPath1105"><rect width="1000" height="1000" x="0" y="0" rx="100" ry="100"></rect></clipPath></defs></svg>