<svg xmlns="http://www.w3.org/2000/svg" width="104" height="104" viewBox="0 0 104 104" fill="#4B75C8"><path fill-rule="evenodd" d="M101 52c0-27.02-21.98-49-49-49S3 24.98 3 52s21.98 49 49 49 49-21.98 49-49ZM0 52a52 52 0 1 1 104 0A52 52 0 0 1 0 52Zm84.96 4.25c1.25-1.21 1.85-2.87 1.85-5.06 0-5.5-1.22-10.67-3.41-15.25a34.14 34.14 0 0 0-12.78-14.28h-.01a35.28 35.28 0 0 0-18.59-5.28h-.18a35.29 35.29 0 0 0-18.57 5.26 34.46 34.46 0 0 0-16.23 29.55c0 2.19.61 3.85 1.86 5.06 2.16 2.09 5.97 2.7 12.6 2.7 1.59 0 3.34-.03 5.26-.09a1.5 1.5 0 0 0 1.45-1.55 1.48 1.48 0 0 0-1.54-1.45c-8.52.26-13.81.05-15.68-1.77-.44-.42-.95-1.14-.95-2.9 0-4.53.91-8.81 2.55-12.68l5.25 2.62a1.5 1.5 0 1 0 1.34-2.68L23.9 35.8a31.39 31.39 0 0 1 9.89-10.91l2.87 4.54a1.5 1.5 0 0 0 2.07.47c.7-.44.91-1.37.47-2.07l-2.85-4.51a32.28 32.28 0 0 1 14.15-3.9v5.14a1.5 1.5 0 1 0 3 0v-5.14a32.2 32.2 0 0 1 14.21 4.02l-2.92 4.53a1.5 1.5 0 1 0 2.52 1.62l2.94-4.57a31.23 31.23 0 0 1 9.78 10.93l-5.28 2.77a1.5 1.5 0 0 0 1.39 2.66l5.18-2.73a32.29 32.29 0 0 1 2.49 12.54c0 1.76-.5 2.48-.94 2.9-1.87 1.82-7.16 2.03-15.68 1.77a1.5 1.5 0 1 0-.09 3c1.92.06 3.67.09 5.25.09 6.64 0 10.45-.61 12.61-2.7ZM49.4 49.96A7.5 7.5 0 1 1 52 64.47a7.5 7.5 0 0 1-5.15-12.92l-8.53-13.74a1.5 1.5 0 0 1 .49-2.06c.7-.44 1.63-.23 2.06.48l8.53 13.73Zm-1.89 7.02a4.5 4.5 0 1 0 9-.01 4.5 4.5 0 0 0-9 .01Zm26.41 12.5H30.07a7.7 7.7 0 0 0 0 15.37h43.85a7.7 7.7 0 0 0 0-15.37Zm-48.53 7.69c0-2.59 2.1-4.69 4.68-4.69h31.6v9.37h-31.6a4.69 4.69 0 0 1-4.68-4.68Zm48.53 4.68h-9.25v-9.37h9.25a4.69 4.69 0 0 1 0 9.37Z"/></svg>
