<svg xmlns="http://www.w3.org/2000/svg" xmlns:xlink="http://www.w3.org/1999/xlink" style="display:none"><symbol id="check-circle"><path fill-rule="evenodd" d="M10.02 3.22a9 9 0 015.65.56 1 1 0 10.81-1.83A10.99 10.99 0 1023.01 12v-.92c0-.55-.45-1-1-1s-1 .45-1 1V12a8.99 8.99 0 01-16.55 4.89 8.95 8.95 0 01.71-10.75 9 9 0 014.86-2.93zm12.69 1.49A1 1 0 1021.3 3.3l-9.29 9.3-2.29-2.29a1 1 0 10-1.41 1.41l3 3c.19.19.44.29.71.29.27 0 .52-.11.71-.29l10-10.01z"/></symbol><symbol id="chevron-left"><path fill-rule="evenodd" d="M15.71 5.29a1 1 0 010 1.41l-5.29 5.29 5.29 5.29a1 1 0 11-1.41 1.41l-6-6a1 1 0 010-1.41l6-6a1 1 0 011.41 0z"/></symbol><symbol id="chevron-right"><path fill-rule="evenodd" d="M8.29 5.29a1 1 0 011.41 0l6 6a1 1 0 010 1.41l-6 6a1 1 0 11-1.41-1.41L13.58 12 8.29 6.71a1 1 0 010-1.41z"/></symbol><symbol id="close"><path d="M19.67 5.95c.45-.45.45-1.17 0-1.62a1.14 1.14 0 00-1.62 0L12 10.38 5.95 4.33a1.14 1.14 0 00-1.62 0 1.14 1.14 0 000 1.62L10.38 12l-6.05 6.05a1.14 1.14 0 000 1.62c.45.45 1.17.45 1.62 0L12 13.62l6.05 6.05c.45.45 1.17.45 1.62 0 .45-.45.45-1.17 0-1.62L13.62 12l6.05-6.05z" fill-rule="evenodd"/></symbol><symbol id="dragger"><path d="M9.34 4.81a1.16 1.16 0 00-1.59 0L1 11.24c-.44.42-.44 1.1 0 1.52l6.75 6.43c.44.42 1.15.42 1.59 0 .44-.42.44-1.1 0-1.52L3.39 12l5.95-5.67c.44-.42.44-1.1 0-1.52zM35 11.24l-6.75-6.43a1.16 1.16 0 00-1.59 0c-.44.42-.44 1.1 0 1.52L32.61 12l-5.95 5.67c-.44.42-.44 1.1 0 1.52.44.42 1.15.42 1.59 0L35 12.76c.44-.42.44-1.1 0-1.52z" fill-rule="evenodd"/></symbol><symbol id="map-pin"><path fill-rule="evenodd" d="M6.34 4.34A8 8 0 0120 10c0 3.1-2.02 6.1-4.23 8.44a29.05 29.05 0 01-2.99 2.73l-.78.6-.78-.6a29.05 29.05 0 01-2.99-2.73C6.02 16.11 4 13.1 4 10a8 8 0 012.34-5.66zm5.1 19.49L12 23l.55.83c-.34.22-.77.22-1.11 0zm0 0L12 23l.56.83.02-.02.08-.06.3-.21 1.06-.8c.87-.69 2.03-1.69 3.2-2.92 2.29-2.42 4.77-5.91 4.77-9.81 0-2.65-1.05-5.2-2.93-7.07A9.97 9.97 0 002 10c0 3.9 2.48 7.4 4.77 9.81a31.52 31.52 0 004.56 3.93l.08.06.02.02zM10 10c0-1.1.9-2 2-2s2 .9 2 2-.9 2-2 2-2-.9-2-2zm2-4a4 4 0 100 8 4 4 0 000-8z"/></symbol><symbol id="minus"><g fill="none"><path fill="#000" fill-rule="evenodd" d="M4 12a1 1 0 011-1h14a1 1 0 110 2H5a1 1 0 01-1-1z" clip-rule="evenodd"/></g></symbol><symbol id="phone"><path d="M25.97 31l-.33-.01a27.7 27.7 0 01-12.02-4.26A27.66 27.66 0 011.02 6.36c-.05-.53.01-1.03.18-1.52a3.57 3.57 0 012-2.19 3.6 3.6 0 011.48-.31h4.06a3.69 3.69 0 013.64 3.16c.16 1.22.46 2.41.88 3.55a3.73 3.73 0 01-.83 3.88l-1.15 1.15a20.4 20.4 0 006.62 6.61l1.15-1.15a3.74 3.74 0 013.89-.84c1.14.43 2.33.72 3.54.88a3.71 3.71 0 013.18 3.73v4a3.6 3.6 0 01-1.2 2.72 3.55 3.55 0 01-2.49.96zM8.73 4.34H4.68a1.71 1.71 0 00-1.23.54 1.62 1.62 0 00-.43 1.27c.42 3.94 1.79 7.8 3.96 11.14a25.37 25.37 0 007.74 7.73 25.75 25.75 0 0011.13 3.96c.21.02.45 0 .67-.08a1.7 1.7 0 001.13-1.58v-4.04c.01-.41-.13-.81-.4-1.12s-.64-.52-1.05-.58a18.4 18.4 0 01-3.98-.99 1.68 1.68 0 00-1.77.38l-1.7 1.69a1 1 0 01-1.21.16 22.48 22.48 0 01-8.42-8.4c-.22-.39-.16-.89.16-1.21l1.7-1.7a1.68 1.68 0 00.37-1.76 18.26 18.26 0 01-.99-3.98 1.67 1.67 0 00-1.65-1.42zm15.9 9.3c-.47 0-.89-.33-.99-.81a5.7 5.7 0 00-4.5-4.49 1 1 0 11.39-1.97 7.63 7.63 0 016.08 6.08 1 1 0 01-.98 1.2zm5.36-.01c-.5 0-.94-.38-1-.89A11.07 11.07 0 0019.23 3a1 1 0 01-.89-1.11c.06-.55.56-.94 1.11-.89a13.06 13.06 0 0111.54 11.5 1 1 0 01-.89 1.11h-.11z"/></symbol><symbol id="plus"><g fill="none"><path d="M13 5a1 1 0 10-2 0v6H5a1 1 0 100 2h6v6a1 1 0 102 0v-6h6a1 1 0 100-2h-6V5z" clip-rule="evenodd"/></g></symbol><symbol id="quote"><g fill="none"><path d="M25.02 28.5v19.1a2.81 2.81 0 01-2.81 2.8H3.12a2.81 2.81 0 01-2.81-2.8V23.71A18.18 18.18 0 0118.49 5.53h2.22a2.26 2.26 0 012.26 2.27v2.66a2.26 2.26 0 01-2.26 2.26h-2.22a11 11 0 00-11 11c0 1.09.89 1.97 1.98 1.97H22.2A2.81 2.81 0 0125 28.5zm30.61 0v19.1a2.81 2.81 0 01-2.81 2.8h-19.1a2.81 2.81 0 01-2.8-2.8V23.71A18.18 18.18 0 0149.1 5.53h2.22a2.26 2.26 0 012.26 2.27v2.66a2.26 2.26 0 01-2.26 2.26H49.1a11 11 0 00-11 11c0 1.09.89 1.97 1.98 1.97h12.74a2.81 2.81 0 012.81 2.81z"/></g></symbol><symbol id="star"><path d="M12 2l3.24 6.58 7.26 1.06-5.25 5.12 1.24 7.23L12 18.57l-6.49 3.42 1.24-7.23L1.5 9.64l7.26-1.06L12 2z"/></symbol></svg>