<svg xmlns="http://www.w3.org/2000/svg" width="24" height="24" viewBox="0 0 24 24"><path fill-rule="evenodd" d="M6.34 4.34A8 8 0 0 1 20 10c0 3.1-2.02 6.1-4.23 8.44a29.05 29.05 0 0 1-2.99 2.73l-.78.6-.78-.6a29.05 29.05 0 0 1-2.99-2.73C6.02 16.11 4 13.1 4 10a8 8 0 0 1 2.34-5.66Zm5.1 19.49L12 23l.55.83c-.34.22-.77.22-1.11 0Zm0 0L12 23l.56.83.02-.02.08-.06.3-.21 1.06-.8c.87-.69 2.03-1.69 3.2-2.92 2.29-2.42 4.77-5.91 4.77-9.81 0-2.65-1.05-5.2-2.93-7.07A9.97 9.97 0 0 0 2 10c0 3.9 2.48 7.4 4.77 9.81a31.52 31.52 0 0 0 4.56 3.93l.08.06.02.02ZM10 10c0-1.1.9-2 2-2s2 .9 2 2-.9 2-2 2-2-.9-2-2Zm2-4a4 4 0 1 0 0 8 4 4 0 0 0 0-8Z"/></svg>