<svg xmlns="http://www.w3.org/2000/svg" width="56" height="56" fill="none" viewBox="0 0 56 56"><path  d="M25.02 28.5v19.1a2.81 2.81 0 0 1-2.81 2.8H3.12a2.81 2.81 0 0 1-2.81-2.8V23.71A18.18 18.18 0 0 1 18.49 5.53h2.22a2.26 2.26 0 0 1 2.26 2.27v2.66a2.26 2.26 0 0 1-2.26 2.26h-2.22a11 11 0 0 0-11 11c0 1.09.89 1.97 1.98 1.97H22.2A2.81 2.81 0 0 1 25 28.5Zm30.61 0v19.1a2.81 2.81 0 0 1-2.81 2.8h-19.1a2.81 2.81 0 0 1-2.8-2.8V23.71A18.18 18.18 0 0 1 49.1 5.53h2.22a2.26 2.26 0 0 1 2.26 2.27v2.66a2.26 2.26 0 0 1-2.26 2.26H49.1a11 11 0 0 0-11 11c0 1.09.89 1.97 1.98 1.97h12.74a2.81 2.81 0 0 1 2.81 2.81Z"/></svg>